<?xml version="1.0" encoding="UTF-8" standalone="no"?>
<!-- Created with Inkscape (http://www.inkscape.org/) -->

<svg
   xmlns:dc="http://purl.org/dc/elements/1.1/"
   xmlns:cc="http://creativecommons.org/ns#"
   xmlns:rdf="http://www.w3.org/1999/02/22-rdf-syntax-ns#"
   xmlns:svg="http://www.w3.org/2000/svg"
   xmlns="http://www.w3.org/2000/svg"
   xmlns:sodipodi="http://sodipodi.sourceforge.net/DTD/sodipodi-0.dtd"
   xmlns:inkscape="http://www.inkscape.org/namespaces/inkscape"
   width="125.01898"
   height="40.128551"
   id="svg2983"
   version="1.1"
   inkscape:version="0.48.4 r9939"
   sodipodi:docname="New document 1">
  <defs
     id="defs2985" />
  <sodipodi:namedview
     id="base"
     pagecolor="#ffffff"
     bordercolor="#666666"
     borderopacity="1.0"
     inkscape:pageopacity="0.0"
     inkscape:pageshadow="2"
     inkscape:zoom="3.959798"
     inkscape:cx="72.718959"
     inkscape:cy="19.291662"
     inkscape:document-units="px"
     inkscape:current-layer="layer1"
     showgrid="false"
     fit-margin-top="0"
     fit-margin-left="0"
     fit-margin-right="0"
     fit-margin-bottom="0"
     inkscape:window-width="1358"
     inkscape:window-height="718"
     inkscape:window-x="0"
     inkscape:window-y="0"
     inkscape:window-maximized="1" />
  <metadata
     id="metadata2988">
    <rdf:RDF>
      <cc:Work
         rdf:about="">
        <dc:format>image/svg+xml</dc:format>
        <dc:type
           rdf:resource="http://purl.org/dc/dcmitype/StillImage" />
        <dc:title></dc:title>
      </cc:Work>
    </rdf:RDF>
  </metadata>
  <g
     inkscape:label="Layer 1"
     inkscape:groupmode="layer"
     id="layer1"
     transform="translate(-177.61447,-291.22648)">
    <path
       inkscape:export-ydpi="401.79449"
       inkscape:export-xdpi="401.79449"
       inkscape:export-filename="/home/rob/Desktop/card_front.pdf.png"
       id="path3852-7-8-9-1-8-1-4-8-5-9-2-6-4-1-2"
       d="m 196.54944,291.22648 c -5.12776,0 -9.55441,1.90898 -13.30731,5.69858 -3.75291,3.78987 -5.62766,8.59006 -5.62766,14.40207 0,5.97377 1.72853,10.80093 5.2214,14.49428 3.52989,3.66096 8.07552,5.49731 13.61195,5.49731 3.45564,0 6.65745,-0.94109 9.63003,-2.8037 2.97258,-1.89487 5.51756,-4.80842 7.59835,-8.75841 2.48952,3.85347 5.24223,6.76271 8.2892,8.72184 3.04683,1.92673 6.39478,2.87658 10.03628,2.87658 5.16478,0 9.61181,-1.91818 13.32762,-5.77191 3.75277,-3.88613 5.62759,-8.6585 5.62766,-14.31104 -7e-5,-5.94099 -1.74898,-10.76403 -5.24165,-14.45693 -3.49293,-3.69341 -8.01818,-5.53355 -13.59177,-5.53381 -3.52989,2.6e-4 -6.80314,0.9727 -9.81275,2.93183 -2.97271,1.927 -5.44624,4.80868 -7.41556,8.63048 -2.56391,-3.95019 -5.36422,-6.88228 -8.41099,-8.77715 -3.00981,-1.89454 -6.3306,-2.84002 -9.9348,-2.84002 z m 36.18365,8.42895 c 4.01295,0 7.23852,1.06851 9.69095,3.18822 2.48947,2.11945 3.73815,4.97854 3.73822,8.57517 -7e-5,3.27592 -1.05147,5.98416 -3.16935,8.1358 -2.08085,2.15138 -4.97632,3.22499 -8.65477,3.22499 -3.82736,0 -6.97802,-1.30609 -9.46755,-3.93942 -2.45244,-2.63365 -5.12671,-6.92205 -8.02498,-12.86311 1.41194,-2.08778 3.46367,-3.66755 6.17621,-4.7275 2.71242,-1.05976 5.9583,-1.59415 9.71127,-1.59415 z m -38.52011,0.14622 c 0.34461,0 0.68191,0.0242 1.01587,0.0366 -0.30301,-0.0248 -0.57154,-0.0248 -1.05642,-0.0248 -0.46046,-2.6e-4 -0.86006,0.0248 -1.21904,0.034 0.4105,-0.0294 0.8276,-0.0562 1.25959,-0.0562 z m 6.11529,0.36649 c 0.56632,-0.0248 1.19128,0.0248 1.95037,0.20224 0.16006,0.0411 0.30249,0.0779 0.46732,0.12669 0.77438,0.23151 1.65377,0.59604 2.58017,1.08092 1.19801,0.66134 2.05056,1.19984 3.12873,2.14407 0.39548,0.38209 0.54921,0.5176 0.87364,0.89774 0.62405,0.73101 0.96285,1.37655 1.21897,1.96063 0.0594,0.17057 0.13426,0.34937 0.18298,0.51316 0.29152,0.98786 0.22066,1.7832 0.0812,2.5101 -0.0431,0.16078 -0.0678,0.32502 -0.12179,0.47665 -0.16914,0.47437 -0.41795,0.8886 -0.75172,1.24588 -0.76928,0.82192 -1.52766,0.8609 -3.04742,1.55757 -0.48515,0.18514 -0.56822,0.25273 -1.13773,0.36642 -0.84269,0.16823 -1.85236,0.17064 -2.86464,0.18521 -1.50148,-0.0242 -3.00922,-0.0242 -4.65247,-0.16568 0,0.0464 0.0176,0.0975 0.0202,0.14621 l -0.0202,-0.0268 c 0.0757,0.29726 0.1692,0.60308 0.2844,0.91648 0.1455,0.39711 0.25377,0.78874 0.44701,1.20937 l -0.0411,0 c 0.25227,0.84817 0.0464,0.19735 0.34533,1.06237 0.11722,0.87161 0.62235,1.94594 0.50801,2.67532 -0.11546,0.68223 -0.27245,1.33168 -0.54856,1.90577 -0.3243,0.5483 -0.76432,1.00007 -1.30027,1.39262 -1.02926,0.6883 -0.27631,0.20949 -3.02712,1.3563 -0.42376,0.17541 -0.91896,0.29335 -1.46281,0.36623 -0.71757,0.0535 -1.48685,0.0633 -2.49894,-0.18521 -0.15979,-0.0392 -0.32292,-0.0804 -0.48756,-0.12675 -0.77451,-0.23144 -1.65389,-0.59577 -2.58023,-1.08092 -1.19801,-0.66107 -2.05062,-1.20009 -3.12873,-2.14407 -0.39555,-0.38235 -0.54921,-0.5178 -0.87358,-0.89793 -0.62417,-0.73108 -0.96278,-1.37629 -1.21896,-1.96044 -0.0594,-0.1705 -0.1137,-0.34937 -0.16261,-0.51309 -0.29146,-0.9876 -0.24104,-1.76491 -0.10162,-2.49208 0.0438,-0.16084 0.0675,-0.32482 0.12199,-0.47613 0.16921,-0.47417 0.43826,-0.90747 0.77203,-1.26468 0.76928,-0.8214 1.52773,-0.86065 3.04749,-1.55757 0.48514,-0.18521 0.54797,-0.23634 1.11742,-0.34794 0.84262,-0.1681 1.85242,-0.19011 2.86464,-0.20225 1.50147,0.0268 3.00928,0.0268 4.65247,0.16319 -6.6e-4,-0.0392 0,-0.0877 0,-0.12662 -0.0752,-0.29733 -0.16921,-0.60315 -0.28447,-0.91576 -0.1455,-0.39764 -0.23392,-0.78901 -0.42663,-1.2099 l 0.0202,0 c -0.25227,-0.84817 -0.0464,-0.19486 -0.34546,-1.06289 -0.11715,-0.87161 -0.62222,-1.94495 -0.50793,-2.67525 0.11519,-0.68158 0.29269,-1.33123 0.56886,-1.90532 0.32404,-0.54895 0.76445,-1.00053 1.30034,-1.39261 1.02913,-0.68837 0.25612,-0.20715 3.00674,-1.35578 0.42389,-0.17541 0.93927,-0.29413 1.48312,-0.36649 0.17966,-0.0248 0.35983,-0.0248 0.54856,-0.0248 z m -1.7066,1.64893 c -0.16378,0.0248 -0.33207,0.0366 -0.48756,0.0562 l -0.0202,0 c -0.37954,0.3034 -0.68667,0.65742 -0.95481,1.04441 -0.31797,0.54412 -0.50049,1.17326 -0.65017,1.83192 -0.16711,0.68954 0.11291,1.55731 0.22347,2.41945 0.14981,0.48587 0.064,0.25188 0.16228,0.78757 -4.5e-4,0.0248 6.6e-4,0.0248 0,0.0366 -0.0229,0.34605 0.38517,1.04487 0.46739,1.44741 0.19741,0.72866 0.489,1.47894 0.67041,2.18064 0.51937,0.0535 1.02756,0.10964 1.54405,0.16332 1.72815,0.16078 3.31282,0.1632 4.87595,0.16568 0.80311,-0.0248 1.58173,-0.0562 2.27546,-0.16568 0.0833,-0.0464 0.16208,-0.0902 0.20283,-0.12675 0.35513,-0.33162 0.61484,-0.732 0.79234,-1.19083 0.0555,-0.14373 0.0963,-0.30751 0.14217,-0.45765 0.14216,-0.67981 0.18801,-1.4233 -0.10168,-2.36408 -0.0464,-0.15111 -0.12637,-0.31947 -0.18272,-0.47665 -0.278,-0.61621 -0.65207,-1.32705 -1.44244,-2.12507 -0.11873,-0.11937 -0.25952,-0.2315 -0.38595,-0.3482 -0.91779,-0.79123 -1.66722,-1.26246 -2.66154,-1.77739 -1.0819,-0.54757 -1.89735,-0.79508 -2.72241,-0.97127 -0.67361,-0.13159 -1.23464,-0.16084 -1.74715,-0.12675 z m -9.87374,10.70095 c -0.80311,0.0268 -1.58167,0.0562 -2.27546,0.16326 -0.0836,0.0464 -0.14243,0.0902 -0.18266,0.12669 -0.35525,0.33142 -0.63548,0.73154 -0.81271,1.19089 -0.0555,0.14373 -0.0961,0.30798 -0.14223,0.45811 -0.14217,0.67982 -0.18801,1.44126 0.10168,2.38191 0.0464,0.15105 0.12636,0.30164 0.18272,0.4583 0.27832,0.61674 0.67224,1.32731 1.46281,2.12559 0.11872,0.11938 0.23875,0.2315 0.36564,0.34827 0.91779,0.79116 1.66715,1.26194 2.66148,1.77686 1.08202,0.54699 1.89748,0.79554 2.7224,0.97179 0.89832,0.173 1.60897,0.14616 2.25515,0.073 0.37968,-0.30379 0.68668,-0.65787 0.95488,-1.04434 0.31777,-0.54438 0.50043,-1.1743 0.6501,-1.83244 0.16712,-0.68935 -0.0925,-1.55757 -0.20309,-2.41874 -0.14981,-0.48632 -0.0848,-0.25266 -0.18272,-0.78776 4.5e-4,-0.0242 -4.6e-4,-0.0242 0,-0.0366 0.0229,-0.34599 -0.3851,-1.04487 -0.46726,-1.44741 -0.19748,-0.7286 -0.48912,-1.47914 -0.67041,-2.18018 -0.51995,-0.0562 -1.02782,-0.11206 -1.54405,-0.16568 -1.72808,-0.16084 -3.31276,-0.16332 -4.87595,-0.16567 z m -3.08811,0.34827 c -0.0961,0.0268 -0.19421,0.0562 -0.28447,0.0901 -0.17762,0.0658 -0.34069,0.14621 -0.50787,0.21929 0.26821,-0.0999 0.53289,-0.20225 0.79234,-0.31117 z"
       style="fill:#000000;fill-opacity:1;fill-rule:nonzero;stroke:none"
       inkscape:connector-curvature="0" />
    <text
       xml:space="preserve"
       style="font-size:12px;font-style:normal;font-variant:normal;font-weight:normal;font-stretch:normal;color:#000000;fill:#000000;fill-opacity:1;fill-rule:nonzero;stroke:none;stroke-width:2;marker:none;visibility:visible;display:inline;overflow:visible;enable-background:accumulate;font-family:Abel;-inkscape-font-specification:Abel"
       x="257.32147"
       y="303.07648"
       id="text3021"><tspan
         sodipodi:role="line"
         id="tspan3023"
         x="257.32147"
         y="303.07648"
         style="font-weight:normal;-inkscape-font-specification:Abel">C</tspan></text>
    <text
       xml:space="preserve"
       style="font-size:12px;font-style:normal;font-variant:normal;font-weight:normal;font-stretch:normal;color:#000000;fill:#000000;fill-opacity:1;fill-rule:nonzero;stroke:none;stroke-width:2;marker:none;visibility:visible;display:inline;overflow:visible;enable-background:accumulate;font-family:Abel;-inkscape-font-specification:Abel"
       x="257.01987"
       y="315.3049"
       id="text3025"><tspan
         sodipodi:role="line"
         id="tspan3027"
         x="257.01987"
         y="315.3049">M</tspan></text>
    <text
       xml:space="preserve"
       style="font-size:12px;font-style:normal;font-variant:normal;font-weight:normal;font-stretch:normal;color:#000000;fill:#000000;fill-opacity:1;fill-rule:nonzero;stroke:none;stroke-width:2;marker:none;visibility:visible;display:inline;overflow:visible;enable-background:accumulate;font-family:Abel;-inkscape-font-specification:Abel"
       x="257.61725"
       y="327.89047"
       id="text3029"><tspan
         sodipodi:role="line"
         id="tspan3031"
         x="257.61725"
         y="327.89047">S</tspan></text>
    <text
       xml:space="preserve"
       style="font-size:9px;font-style:normal;font-variant:normal;font-weight:normal;font-stretch:normal;color:#000000;fill:#000000;fill-opacity:1;fill-rule:nonzero;stroke:none;stroke-width:2;marker:none;visibility:visible;display:inline;overflow:visible;enable-background:accumulate;font-family:Abel;-inkscape-font-specification:Abel"
       x="264.01791"
       y="302.86938"
       id="text3033"><tspan
         sodipodi:role="line"
         id="tspan3035"
         x="264.01791"
         y="302.86938">ontent</tspan></text>
    <text
       xml:space="preserve"
       style="font-size:9px;font-style:normal;font-variant:normal;font-weight:normal;font-stretch:normal;color:#000000;fill:#000000;fill-opacity:1;fill-rule:nonzero;stroke:none;stroke-width:2;marker:none;visibility:visible;display:inline;overflow:visible;enable-background:accumulate;font-family:Abel;-inkscape-font-specification:Abel"
       x="264.9108"
       y="315.04443"
       id="text3037"><tspan
         sodipodi:role="line"
         id="tspan3039"
         x="264.9108"
         y="315.04443">anagement</tspan></text>
    <text
       xml:space="preserve"
       style="font-size:9px;font-style:normal;font-variant:normal;font-weight:normal;font-stretch:normal;color:#000000;fill:#000000;fill-opacity:1;fill-rule:nonzero;stroke:none;stroke-width:2;marker:none;visibility:visible;display:inline;overflow:visible;enable-background:accumulate;font-family:Abel;-inkscape-font-specification:Abel"
       x="264.1965"
       y="327.63007"
       id="text3041"><tspan
         sodipodi:role="line"
         id="tspan3043"
         x="264.1965"
         y="327.63007">ystem</tspan></text>
  </g>
</svg>
